<svg width="1495" height="2385" viewBox="0 0 1495 2385" fill="none" xmlns="http://www.w3.org/2000/svg">
<path d="M796.993 417.282C907.003 417.802 1017.18 420.662 1128.01 426.682C1218.67 431.602 1309.32 436.522 1399.97 441.442C1404.75 441.702 1409.54 442.202 1414.27 442.932C1470.49 451.522 1476.32 460.072 1468.29 516.452C1426.37 810.612 1385.09 1104.86 1342.85 1398.97C1299.79 1698.79 1255.57 1998.43 1212.97 2298.31C1209.62 2321.92 1199.46 2329.98 1177.95 2335.06C887.013 2403.68 596.393 2398.32 305.653 2333.96C285.603 2329.52 277.583 2320.18 275.053 2299.59C237.143 1991.37 198.523 1683.23 159.843 1375.11C122.723 1079.36 85.5226 783.622 47.7826 487.952C44.1626 459.582 62.3526 451.532 82.4026 448.452C130.653 441.022 179.193 433.472 227.863 431.232C418.693 422.422 607.592 416.392 797.003 417.292L796.993 417.282ZM164.763 477.452C561.013 507.762 957.153 507.582 1353.26 477.592C957.093 444.462 560.893 444.942 164.763 477.452Z" fill="#693FF3"/>
<path d="M164.763 477.452C560.903 444.932 957.103 444.462 1353.26 477.592C957.143 507.592 561.013 507.772 164.763 477.452Z" fill="#F8F9FA"/>
<path d="M1449.07 223.642C1438.61 223.642 1430.13 214.852 1430.13 204.022V76.242C1430.13 -22.7281 1364.93 -0.768071 1292.45 9.47193C1291.67 9.57193 1290.9 9.66194 1290.12 9.76194C1287.85 10.0419 1285.58 10.3219 1283.32 10.6019C1279.65 11.0619 1275.97 11.5119 1272.3 11.9719C1267.31 12.5919 1262.32 13.2119 1257.33 13.8319C1251.11 14.6019 1244.89 15.3719 1238.67 16.1419C1231.31 17.0519 1223.94 17.9619 1216.58 18.8819C1208.16 19.9219 1199.74 20.9719 1191.32 22.0119C1181.93 23.1719 1172.54 24.3419 1163.16 25.5019C1152.89 26.7719 1142.62 28.0419 1132.35 29.3219C1121.29 30.6919 1110.22 32.0619 1099.16 33.4419C1087.39 34.9019 1075.62 36.3619 1063.85 37.8219C1051.46 39.3619 1039.07 40.8919 1026.68 42.4319C1013.76 44.0319 1000.83 45.6319 987.912 47.2419C974.542 48.9019 961.172 50.5519 947.812 52.2119C934.082 53.9119 920.362 55.6119 906.632 57.3219C892.632 59.0519 878.642 60.7919 864.642 62.5319C850.462 64.2919 836.282 66.0419 822.102 67.8019C807.822 69.5719 793.552 71.3419 779.272 73.1119C764.982 74.8819 750.702 76.6519 736.412 78.4219C722.202 80.1819 707.992 81.9419 693.792 83.7019C679.752 85.4419 665.712 87.1819 651.662 88.9219C637.872 90.6319 624.082 92.3419 610.292 94.0519C596.842 95.7219 583.392 97.3819 569.942 99.0519C556.922 100.662 543.902 102.282 530.872 103.892C518.362 105.442 505.852 106.992 493.342 108.542C481.432 110.022 469.532 111.492 457.622 112.972C446.402 114.362 435.182 115.752 423.962 117.142C413.522 118.432 403.072 119.732 392.632 121.022C383.052 122.212 373.472 123.392 363.892 124.582L338.002 127.792C330.412 128.732 322.812 129.672 315.222 130.612C308.752 131.412 302.282 132.212 295.822 133.012C290.562 133.662 285.312 134.312 280.052 134.962C276.092 135.452 272.142 135.942 268.182 136.432C265.612 136.752 263.042 137.072 260.472 137.382C221.502 142.212 193.082 148.532 154.222 154.252C125.502 158.472 94.0224 161.692 76.1924 188.722C70.1624 197.862 64.8424 207.982 62.5424 218.872C60.7224 227.472 62.5824 240.002 53.7824 245.272C48.8724 248.212 42.9024 248.492 37.2124 249.072C28.5824 249.952 19.8124 251.762 12.5324 256.472C5.25237 261.182 -0.297623 269.292 0.012377 277.952C0.332377 287.032 6.94237 294.932 14.8824 299.332C22.8224 303.742 31.9824 305.282 40.9424 306.762C139.492 323.032 239.232 325.982 338.742 331.832C349.802 332.482 360.852 333.102 371.912 333.682C395.972 334.952 420.022 336.142 444.092 337.282C557.532 342.612 671.462 347.222 785.052 345.842C1065.09 342.432 1163.93 335.602 1358.12 321.732C1388.36 319.572 1418.73 314.902 1449.04 314.902C1475.56 314.902 1494.5 291.352 1494.5 267.812C1494.5 240.342 1471.77 223.622 1449.04 223.622L1449.07 223.642Z" fill="#693FF3"/>
<path d="M175.543 186.642C565.793 130.382 950.033 87.9419 1340.58 55.9219C1351.46 55.0319 1351.61 57.9819 1340.99 60.3319C956.943 145.352 565.683 183.112 176.093 191.042C165.213 191.262 164.733 188.212 175.553 186.652L175.543 186.642Z" fill="#F8F9FA"/>
<path d="M976.903 764.182H820.713C817.953 764.182 815.713 766.422 815.713 769.182V1018.75C815.713 1020.76 814.503 1022.58 812.643 1023.36L706.133 1067.95C702.843 1069.33 699.203 1066.91 699.203 1063.34V769.182C699.203 766.422 696.963 764.182 694.203 764.182H539.163C536.403 764.182 534.163 761.942 534.163 759.182V676.082C534.163 673.322 536.403 671.082 539.163 671.082H976.883C979.643 671.082 981.883 673.322 981.883 676.082V759.182C981.883 761.942 979.643 764.182 976.883 764.182H976.903Z" fill="#F8F9FA"/>
<path d="M1009.66 1399.95C1009.66 1525.59 912.003 1599.82 758.393 1599.82H540.093C537.333 1599.82 535.093 1597.58 535.093 1594.82V1205.06C535.093 1202.3 537.333 1200.06 540.093 1200.06H758.393C912.003 1200.06 1009.66 1274.3 1009.66 1399.94V1399.95ZM890.883 1399.95C890.883 1329.13 834.913 1292.59 749.253 1292.59H656.593C653.833 1292.59 651.593 1294.83 651.593 1297.59V1502.32C651.593 1505.08 653.833 1507.32 656.593 1507.32H749.253C834.913 1507.32 890.883 1470.77 890.883 1399.96V1399.95Z" fill="#F8F9FA"/>
<path d="M864.932 2055.05H651.853C649.953 2055.05 648.213 2056.13 647.373 2057.84L612.432 2128.79C611.592 2130.5 609.852 2131.58 607.952 2131.58H497.062C493.322 2131.58 490.902 2127.61 492.622 2124.29L694.182 1734.53C695.042 1732.87 696.753 1731.83 698.623 1731.83H819.892C821.762 1731.83 823.472 1732.87 824.332 1734.53L1025.89 2124.29C1027.61 2127.62 1025.2 2131.58 1021.45 2131.58H908.842C906.942 2131.58 905.203 2130.5 904.363 2128.79L869.422 2057.84C868.582 2056.13 866.842 2055.05 864.942 2055.05H864.932ZM823.993 1965.06L762.873 1839.79C761.053 1836.06 755.732 1836.05 753.902 1839.78L692.272 1965.05C690.642 1968.37 693.052 1972.25 696.752 1972.25H819.493C823.183 1972.25 825.603 1968.38 823.983 1965.06H823.993Z" fill="#F8F9FA"/>
</svg>
